<svg xmlns="http://www.w3.org/2000/svg" xmlns:xlink="http://www.w3.org/1999/xlink" viewBox="0,0,256,256" width="56px" height="56px"><g fill="#333333" fill-rule="nonzero" stroke="none" stroke-width="1" stroke-linecap="butt" stroke-linejoin="miter" stroke-miterlimit="10" stroke-dasharray="" stroke-dashoffset="0" font-family="none" font-weight="none" font-size="none" text-anchor="none" style="mix-blend-mode: normal"><g transform="scale(3.55556,3.55556)"><path d="M36,12c13.234,0 24,10.766 24,24c0,13.234 -10.766,24 -24,24c-13.234,0 -24,-10.766 -24,-24c0,-13.234 10.766,-24 24,-24zM29.607,44.898c0,-2.62 0,-8.716 0,-11.335c0,-0.681 -0.552,-1.232 -1.232,-1.232c-0.391,0 -0.824,0 -1.215,0c-0.681,0 -1.232,0.552 -1.232,1.232c0,2.62 0,8.716 0,11.335c0,0.681 0.552,1.232 1.232,1.232c0.391,0 0.824,0 1.215,0c0.68,0 1.232,-0.551 1.232,-1.232zM27.767,29.571c1.015,0 1.84,-0.825 1.84,-1.84c0,-1.015 -0.825,-1.84 -1.84,-1.84c-1.015,0 -1.84,0.825 -1.84,1.84c0,1.015 0.824,1.84 1.84,1.84zM47.087,44.915c0,-2.197 0,-6.604 0,-6.604c0,-3.303 -2.677,-5.98 -5.98,-5.98c-1.608,0 -3.065,0.638 -4.14,1.671v-0.455c0,-0.671 -0.544,-1.216 -1.216,-1.216c-0.401,0 -0.847,0 -1.249,0c-0.671,0 -1.216,0.544 -1.216,1.216c0,2.616 0,8.753 0,11.369c0,0.671 0.544,1.216 1.216,1.216c0.401,0 0.847,0 1.249,0c0.672,0 1.216,-0.544 1.216,-1.216c0,-1.98 0,-5.684 0,-5.684c0,-1.771 1.449,-3.22 3.22,-3.22c1.771,0 3.22,1.449 3.22,3.22v5.684c0,0.671 0.544,1.216 1.216,1.216c0.401,0 0.847,0 1.249,0c0.67,-0.002 1.215,-0.546 1.215,-1.217z"></path></g></g></svg>